{
  "title": "Ladri di Biciclette (1948) Vittorio De Sica It,Eng subs",
  "uid": 5331193,
  "size": 739659230,
  "categoryP": "video",
  "categoryS": "movies",
  "magnet": "?xt=urn:btih:1e8613c514462de40149d9684e47e15688b8b8f5&amp;dn=Ladri+di+Biciclette+%281948%29+Vittorio+De+Sica+It%2CEng+subs&amp;tr=udp%3A%2F%2Ftracker.openbittorrent.com%3A80&amp;tr=udp%3A%2F%2Fopen.demonii.com%3A1337&amp;tr=udp%3A%2F%2Ftracker.coppersurfer.tk%3A6969&amp;tr=udp%3A%2F%2Fexodus.desync.com%3A6969",
  "seeders": 39,
  "leechers": 1,
  "uploader": "johnefp",
  "files": -1,
  "time": 1265180928,
  "description": "This landmark Italian neorealist drama became one of the best-known and most widely acclaimed European movies, including a special Academy Award as &quot;most outstanding foreign film&quot; seven years before that Oscar category existed. Written primarily by neorealist pioneer Cesare Zavattini and directed by Vittorio DeSica, also one of the movement's main forces, the movie featured all the hallmarks of the neorealist style: a simple story about the lives of ordinary people, outdoor shooting and lighting, non-actors mixed together with actors, and a focus on social problems in the aftermath of World War II. Lamberto Maggiorani plays Antonio, an unemployed man who finds a coveted job that requires a bicycle. When it is stolen on his first day of work, Antonio and his young son Bruno (Enzo Staiola) begin a frantic search, learning valuable lessons along the way. The movie focuses on both the relationship between the father and the son and the larger framework of poverty and unemployment in postwar Italy. As in such other classic films as Shoeshine (1946), Umberto D. (1952), and his late masterpiece The Garden of the Finzi-Continis (1971), DeSica focuses on the ordinary details of ordinary lives as a way to dramatize wider social issues. As a result, The Bicycle Thief works as a sentimental study of a father and son, a historical document, a social statement, and a record of one of the century's most influential film movements.\n\n\n &lt;a href=&quot;\nhttp://www.imdb.com/title/tt0040522/&quot; rel=&quot;nofollow&quot; target=&quot;_NEW&quot;&gt;\nhttp://www.imdb.com/title/tt0040522/&lt;/a&gt;\n\n\n &lt;a href=&quot;\nhttp://en.wikipedia.org/wiki/Ladri_di_biciclette&quot; rel=&quot;nofollow&quot; target=&quot;_NEW&quot;&gt;\nhttp://en.wikipedia.org/wiki/Ladri_di_biciclette&lt;/a&gt;\n\n\n\nSubtitles:\n\n\n &lt;a href=&quot;\nhttp://www.opensubtitles.org/en/search/sublanguageid-all/idmovie-2091&quot; rel=&quot;nofollow&quot; target=&quot;_NEW&quot;&gt;\nhttp://www.opensubtitles.org/en/search/sublanguageid-all/idmovie-2091&lt;/a&gt;\n\n\n\nDirector:\nVittorio De Sica\n\n\n\n        Lamberto Maggiorani... \tAntonio Ricci\n\tEnzo Staiola\t... \tBruno Ricci\n\tLianella Carell\t... \tMaria Ricci\n\tGino Saltamerenda... \tBaiocco\n\tVittorio Antonucci... \tThe Thief\n\n\nVideo #2\n      ID : 2\n      Format : VC-1\n      Format profile : MP@ML\n      Codec ID : WMV3\n      Codec ID/Info : Windows Media Video 9\n      Codec ID/Hint : WMV3\n      Duration : 1h 29mn\n      Bit rate mode : Variable\n      Bit rate : 1 000 Kbps\n      Width : 640 pixels\n      Height : 480 pixels\n      Display aspect ratio : 4/3\n      Frame rate : 25.000 fps\n      Resolution : 24 bits\n      Scan type : Progressive\n      Bits/(Pixel*Frame) : 0.130\n      Stream size : 638 MiB (91%)\n   Audio #1\n      ID : 1\n      Format : WMA2\n      Format profile : L\n      Codec ID : 161\n      Codec ID/Info : Windows Media Audio 2\n      Description of the codec : Windows Media Audio 9.2 -  96 kbps, 44 kHz, stereo 2-pass VBR\n      Duration : 1h 29mn\n      Bit rate mode : Variable\n      Bit rate : 92.6 Kbps\n      Channel(s) : 2 channels\n      Sampling rate : 44.1 KHz\n      Resolution : 16 bits\n      Stream size : 59.1 MiB (8%)\n\n\nPlease seed at least as much as you D/L.\n=======================================\nThanks \n\nJohn",
  "parsed": {
    "xt": "urn:btih:1e8613c514462de40149d9684e47e15688b8b8f5",
    "dn": "Ladri di Biciclette (1948) Vittorio De Sica It,Eng subs",
    "tr": [
      "udp://exodus.desync.com:6969",
      "udp://open.demonii.com:1337",
      "udp://tracker.coppersurfer.tk:6969",
      "udp://tracker.openbittorrent.com:80"
    ],
    "infoHash": "1e8613c514462de40149d9684e47e15688b8b8f5",
    "infoHashBuffer": {
      "type": "Buffer",
      "data": [
        30,
        134,
        19,
        197,
        20,
        70,
        45,
        228,
        1,
        73,
        217,
        104,
        78,
        71,
        225,
        86,
        136,
        184,
        184,
        245
      ]
    },
    "name": "Ladri di Biciclette (1948) Vittorio De Sica It,Eng subs",
    "announce": [
      "udp://exodus.desync.com:6969",
      "udp://open.demonii.com:1337",
      "udp://tracker.coppersurfer.tk:6969",
      "udp://tracker.openbittorrent.com:80"
    ],
    "urlList": []
  },
  "previous": 40,
  "peers": 57,
  "last_updated": "2016-12-24T19:08:59.533Z"
}